<?xml version="1.0" encoding="iso-8859-1"?>
<!-- Generator: Adobe Illustrator 19.0.0, SVG Export Plug-In . SVG Version: 6.00 Build 0)  -->
<svg version="1.1" id="Layer_1" xmlns="http://www.w3.org/2000/svg" xmlns:xlink="http://www.w3.org/1999/xlink" x="0px" y="0px"
	 viewBox="0 0 512 512" style="enable-background:new 0 0 512 512;" xml:space="preserve">
<g>
	<path style="fill:#E8EDEE;" d="M512,419.31c0,48.755-114.617,88.276-256,88.276S0,468.065,0,419.31l52.939-310.051
		c5.111-29.97,31.082-51.88,61.484-51.88h283.154c30.402,0,56.373,21.91,61.484,51.88L512,419.31z"/>
	<g>
		<path style="fill:#B0B6BB;" d="M335.448,57.379H176.552V19.491c0-8.324,6.753-15.078,15.078-15.078h128.742
			c8.324,0,15.078,6.753,15.078,15.078V57.379z"/>
		<path style="fill:#B0B6BB;" d="M256,507.586c141.383,0,256-39.521,256-88.276H0C0,468.065,114.617,507.586,256,507.586"/>
	</g>
	<path style="fill:#F3D55B;" d="M326.621,304.552c0,39-31.62,70.621-70.621,70.621s-70.621-31.62-70.621-70.621
		S217,233.931,256,233.931S326.621,265.551,326.621,304.552"/>
	<path style="fill:#CBB292;" d="M291.31,304.552c0,19.5-15.81,35.31-35.31,35.31s-35.31-15.81-35.31-35.31
		c0-19.5,15.81-35.31,35.31-35.31S291.31,285.052,291.31,304.552"/>
	<polygon style="fill:#B0B6BB;" points="48.229,136.828 39.189,189.793 472.818,189.793 463.77,136.828 	"/>
	<g>
		<path style="fill:#E8EDEE;" d="M176.552,463.448c0,4.873-3.955,8.828-8.828,8.828s-8.828-3.955-8.828-8.828
			s3.955-8.828,8.828-8.828S176.552,458.575,176.552,463.448"/>
		<path style="fill:#E8EDEE;" d="M220.69,463.448c0,4.873-3.955,8.828-8.828,8.828c-4.873,0-8.828-3.955-8.828-8.828
			s3.955-8.828,8.828-8.828C216.735,454.621,220.69,458.575,220.69,463.448"/>
		<path style="fill:#E8EDEE;" d="M264.828,463.448c0,4.873-3.955,8.828-8.828,8.828s-8.828-3.955-8.828-8.828
			s3.955-8.828,8.828-8.828S264.828,458.575,264.828,463.448"/>
		<path style="fill:#E8EDEE;" d="M308.966,463.448c0,4.873-3.955,8.828-8.828,8.828c-4.873,0-8.828-3.955-8.828-8.828
			s3.955-8.828,8.828-8.828C305.011,454.621,308.966,458.575,308.966,463.448"/>
		<path style="fill:#E8EDEE;" d="M353.103,463.448c0,4.873-3.955,8.828-8.828,8.828c-4.873,0-8.828-3.955-8.828-8.828
			s3.955-8.828,8.828-8.828C349.149,454.621,353.103,458.575,353.103,463.448"/>
	</g>
	<g>
		<path style="fill:#B0B6BB;" d="M150.069,225.103H33.156l-3.01,17.655h119.923c4.882,0,8.828-3.955,8.828-8.828
			C158.897,229.058,154.951,225.103,150.069,225.103"/>
		<path style="fill:#B0B6BB;" d="M22.607,286.897h48.013c4.882,0,8.828-3.955,8.828-8.828s-3.946-8.828-8.828-8.828H25.618
			L22.607,286.897z"/>
		<path style="fill:#B0B6BB;" d="M132.414,313.379H18.088l-3.019,17.655h117.345c4.882,0,8.828-3.955,8.828-8.828
			C141.241,317.334,137.295,313.379,132.414,313.379"/>
		<path style="fill:#B0B6BB;" d="M7.535,375.172h80.737c4.882,0,8.828-3.955,8.828-8.828c0-4.873-3.946-8.828-8.828-8.828H10.545
			L7.535,375.172z"/>
		<path style="fill:#B0B6BB;" d="M478.843,225.103H361.93c-4.882,0-8.828,3.955-8.828,8.828c0,4.873,3.946,8.828,8.828,8.828
			h119.923L478.843,225.103z"/>
		<path style="fill:#B0B6BB;" d="M486.378,269.241h-45.003c-4.873,0-8.828,3.955-8.828,8.828s3.955,8.828,8.828,8.828h48.013
			L486.378,269.241z"/>
		<path style="fill:#B0B6BB;" d="M493.914,313.379H379.588c-4.882,0-8.828,3.955-8.828,8.828c0,4.873,3.946,8.828,8.828,8.828
			h117.336L493.914,313.379z"/>
		<path style="fill:#B0B6BB;" d="M501.45,357.517h-77.727c-4.882,0-8.828,3.955-8.828,8.828c0,4.873,3.946,8.828,8.828,8.828h80.737
			L501.45,357.517z"/>
	</g>
</g>
<g>
</g>
<g>
</g>
<g>
</g>
<g>
</g>
<g>
</g>
<g>
</g>
<g>
</g>
<g>
</g>
<g>
</g>
<g>
</g>
<g>
</g>
<g>
</g>
<g>
</g>
<g>
</g>
<g>
</g>
</svg>
